<svg width="120" height="60" viewBox="0 0 120 60" fill="none" xmlns="http://www.w3.org/2000/svg">
<g clip-path="url(#clip0_173_10502)">
<path fill-rule="evenodd" clip-rule="evenodd" d="M1.38712 53.017H3.48171C3.7955 53.017 3.98371 52.8733 4.04644 52.5856C4.04644 52.4915 4.0294 52.4131 3.99557 52.3502C3.96149 52.2875 3.92097 52.2302 3.87389 52.1777L2.30503 50.5934C2.21605 50.5047 2.15445 50.3974 2.12062 50.2718C2.08654 50.1464 2.06962 50.0314 2.06962 49.9268C2.06962 49.885 2.07089 49.8498 2.07354 49.8209C2.07606 49.7921 2.07997 49.7647 2.08528 49.7385C2.13236 49.5085 2.20936 49.3228 2.31677 49.1817C2.42394 49.0405 2.54549 48.9321 2.68156 48.8561C2.81738 48.7804 2.96002 48.7294 3.10909 48.7033C3.25816 48.6771 3.39789 48.664 3.52879 48.664H5.73306L5.57617 49.4247H3.52879C3.46593 49.4247 3.40446 49.4353 3.34437 49.4562C3.28417 49.4772 3.22799 49.5046 3.17574 49.5385C3.12335 49.5725 3.07892 49.6105 3.04244 49.6522C3.00559 49.6941 2.98211 49.7385 2.97176 49.7856L2.96393 49.809V49.8405C2.96393 49.9346 3.01228 50.0431 3.10909 50.1659C3.20565 50.289 3.32872 50.4222 3.47779 50.566C3.62687 50.7099 3.78616 50.8628 3.95632 51.0247C4.12621 51.187 4.28576 51.3542 4.43484 51.5268C4.58391 51.6993 4.70673 51.8746 4.80354 52.0523C4.9001 52.2302 4.94857 52.4079 4.94857 52.5856C4.94857 52.6119 4.94719 52.6392 4.94466 52.6679C4.94201 52.6968 4.9381 52.7243 4.93292 52.7503C4.90679 52.8757 4.86236 53.0001 4.79963 53.1228C4.73677 53.2459 4.65964 53.3557 4.56813 53.4522C4.47649 53.549 4.36932 53.6263 4.24651 53.6837C4.12356 53.7412 3.98888 53.7699 3.84259 53.7699H1.23022L1.38712 53.017Z" fill="#18405F"/>
<path fill-rule="evenodd" clip-rule="evenodd" d="M9.8987 51.0484C9.93518 50.9072 9.9536 50.7425 9.9536 50.5542C9.9536 50.3504 9.92217 50.1766 9.85944 50.0327C9.79671 49.889 9.71037 49.7726 9.60055 49.6836C9.49074 49.5949 9.36249 49.5294 9.2162 49.4875C9.06965 49.4459 8.91275 49.4248 8.7455 49.4248H8.5886C8.3898 49.4248 8.19099 49.4537 7.99244 49.5111C7.79363 49.5687 7.60808 49.6616 7.43541 49.7895C7.26286 49.9177 7.11113 50.0851 6.98049 50.2916C6.84959 50.4981 6.75303 50.7503 6.69017 51.0484L6.62744 51.3385C6.58553 51.5792 6.5647 51.7597 6.5647 51.8798C6.5647 52.2772 6.67452 52.566 6.89415 52.7464C7.11378 52.9268 7.4041 53.017 7.76498 53.017H7.92188C8.13091 53.017 8.33615 52.9856 8.53761 52.9229C8.73894 52.8601 8.92588 52.7608 9.09855 52.6249C9.2711 52.489 9.42144 52.3151 9.54956 52.1033C9.67755 51.8915 9.77323 51.6366 9.83596 51.3385L9.8987 51.0484ZM8.10226 53.7699H7.33342C7.14521 53.7699 6.95424 53.7307 6.76086 53.6523C6.56723 53.5738 6.38938 53.4577 6.22743 53.3032C6.0651 53.1491 5.9332 52.9582 5.83121 52.7308C5.72922 52.5032 5.67822 52.2405 5.67822 51.9425C5.67822 51.7334 5.6964 51.5531 5.73313 51.4012L5.81164 51.0406C5.90038 50.6275 6.04163 50.2706 6.23526 49.9699C6.42863 49.6694 6.64561 49.4235 6.88633 49.2327C7.12679 49.0419 7.3805 48.9008 7.64721 48.8092C7.91393 48.7177 8.16751 48.6719 8.40823 48.6719H9.17694C9.34962 48.6719 9.5339 48.7086 9.73006 48.7817C9.92609 48.855 10.1066 48.9674 10.2713 49.1189C10.436 49.2706 10.5719 49.4601 10.6793 49.6875C10.7863 49.915 10.8401 50.1805 10.8401 50.4836C10.8401 50.5674 10.8347 50.655 10.8243 50.7464C10.8138 50.838 10.7982 50.9361 10.7772 51.0406L10.6988 51.4012C10.6099 51.8197 10.4675 52.1778 10.2713 52.4759C10.0752 52.7738 9.85414 53.0184 9.60838 53.2092C9.36249 53.4 9.10638 53.5413 8.83966 53.6328C8.57295 53.7244 8.32706 53.7699 8.10226 53.7699Z" fill="#18405F"/>
<path fill-rule="evenodd" clip-rule="evenodd" d="M16.3152 48.6719L15.2327 53.7699H14.1972L12.6518 50.0915L11.8673 53.7699H10.981L12.0635 48.6719H13.0754L14.6208 52.4601L15.4289 48.6719H16.3152Z" fill="#18405F"/>
<path fill-rule="evenodd" clip-rule="evenodd" d="M20.6848 51.0484C20.7213 50.9072 20.7397 50.7425 20.7397 50.5542C20.7397 50.3504 20.7083 50.1766 20.6456 50.0327C20.5828 49.889 20.4965 49.7726 20.3867 49.6836C20.2769 49.5949 20.1486 49.5294 20.0023 49.4875C19.8558 49.4459 19.6989 49.4248 19.5316 49.4248H19.3747C19.1759 49.4248 18.9771 49.4537 18.7786 49.5111C18.5798 49.5687 18.3942 49.6616 18.2215 49.7895C18.049 49.9177 17.8973 50.0851 17.7666 50.2916C17.6357 50.4981 17.539 50.7503 17.4763 51.0484L17.4136 51.3385C17.3717 51.5792 17.3508 51.7597 17.3508 51.8798C17.3508 52.2772 17.4607 52.566 17.6803 52.7464C17.8999 52.9268 18.1902 53.017 18.551 53.017H18.7079C18.917 53.017 19.1223 52.9856 19.3237 52.9229C19.5251 52.8601 19.712 52.7608 19.8847 52.6249C20.0572 52.489 20.2074 52.3151 20.3357 52.1033C20.4637 51.8915 20.5592 51.6366 20.6221 51.3385L20.6848 51.0484ZM18.8884 53.7699H18.1195C17.9313 53.7699 17.7404 53.7307 17.547 53.6523C17.3532 53.5738 17.1755 53.4577 17.0134 53.3032C16.8512 53.1491 16.7193 52.9582 16.6173 52.7308C16.5153 52.5032 16.4644 52.2405 16.4644 51.9425C16.4644 51.7334 16.4825 51.5531 16.5193 51.4012L16.5978 51.0406C16.6865 50.6275 16.8278 50.2706 17.0214 49.9699C17.2148 49.6694 17.4317 49.4235 17.6725 49.2327C17.9129 49.0419 18.1666 48.9008 18.4333 48.8092C18.7001 48.7177 18.9536 48.6719 19.1944 48.6719H19.9631C20.1356 48.6719 20.32 48.7086 20.5162 48.7817C20.7122 48.855 20.8927 48.9674 21.0574 49.1189C21.2222 49.2706 21.358 49.4601 21.4653 49.6875C21.5724 49.915 21.6261 50.1805 21.6261 50.4836C21.6261 50.5674 21.6208 50.655 21.6104 50.7464C21.6 50.838 21.5842 50.9361 21.5634 51.0406L21.485 51.4012C21.396 51.8197 21.2535 52.1778 21.0574 52.4759C20.8613 52.7738 20.6401 53.0184 20.3945 53.2092C20.1486 53.4 19.8925 53.5413 19.6258 53.6328C19.3591 53.7244 19.1132 53.7699 18.8884 53.7699Z" fill="#18405F"/>
<path fill-rule="evenodd" clip-rule="evenodd" d="M26.9601 53.7699H26.0816L26.8034 50.3582L24.7244 53.7699H24.0655L23.3987 50.264L22.6534 53.7699H21.7671L22.8496 48.6719H23.9635L24.6931 52.2719L26.8268 48.6719H28.0428L26.9601 53.7699Z" fill="#18405F"/>
<path fill-rule="evenodd" clip-rule="evenodd" d="M27.5093 53.7699L30.2628 48.6719H31.4552L32.2632 53.5347V53.6131C32.2578 53.6393 32.2448 53.6719 32.2239 53.7111C32.2028 53.7504 32.1898 53.7699 32.1847 53.7699H29.2273L29.6352 53.0248H31.2669L30.7256 49.6053L28.435 53.7699H27.5093Z" fill="#18405F"/>
<path fill-rule="evenodd" clip-rule="evenodd" d="M36.9229 48.6719H37.8877L38.3428 52.2797L40.5314 48.6719H41.5668L38.3897 53.7699H37.6603L36.9229 48.6719Z" fill="#18405F"/>
<path fill-rule="evenodd" clip-rule="evenodd" d="M39.8411 53.7699L42.5945 48.6719H43.7869L44.595 53.5347V53.6131C44.5895 53.6393 44.5765 53.6719 44.5557 53.7111C44.5346 53.7504 44.5216 53.7699 44.5165 53.7699H41.559L41.967 53.0248H43.5987L43.0574 49.6053L40.7667 53.7699H39.8411Z" fill="#18405F"/>
<path fill-rule="evenodd" clip-rule="evenodd" d="M47.0815 48.6719L46.1559 53.017H48.8938L48.6349 53.7699H45.1125L46.1952 48.6719H47.0815Z" fill="#18405F"/>
<path fill-rule="evenodd" clip-rule="evenodd" d="M51.4902 48.6719L50.5646 53.017H53.3023L53.0434 53.7699H49.5212L50.6037 48.6719H51.4902Z" fill="#18405F"/>
<path fill-rule="evenodd" clip-rule="evenodd" d="M57.5934 51.5346H55.2949L54.9733 53.017H57.711L57.4521 53.7699H53.9299L55.0124 48.6719H58.6368L58.3779 49.4248H55.742L55.4518 50.7895H57.8523L57.5934 51.5346Z" fill="#18405F"/>
<path fill-rule="evenodd" clip-rule="evenodd" d="M60.441 51.8013L59.1858 48.6719H60.1743L61.0607 50.8679L62.8807 48.6719H63.924L61.3275 51.8013L60.9117 53.7699H60.0252L60.441 51.8013Z" fill="#18405F"/>
<path fill-rule="evenodd" clip-rule="evenodd" d="M71.9332 48.6719L71.7763 49.4248H70.1367L69.2111 53.7699H68.3246L69.2503 49.4248H67.6108L67.7677 48.6719H71.9332Z" fill="#18405F"/>
<path fill-rule="evenodd" clip-rule="evenodd" d="M72.7176 48.6719H75.1417C75.5861 48.6719 75.9286 48.7557 76.1693 48.9229C76.4097 49.0902 76.5302 49.3699 76.5302 49.7621C76.5302 49.9243 76.5144 50.0863 76.4831 50.2484C76.4412 50.4576 76.3694 50.6471 76.2674 50.8169C76.1654 50.9871 76.045 51.1374 75.9065 51.268C75.7678 51.3989 75.6135 51.5099 75.4436 51.6013C75.2736 51.6929 75.0998 51.7621 74.9219 51.8091L75.8006 53.7699H74.9063L73.8159 51.2523C73.8576 51.2209 73.8904 51.2027 73.9139 51.1974C73.9375 51.1923 73.9649 51.1895 73.9963 51.1895C74.4043 51.1895 74.748 51.1165 75.0278 50.9699C75.3077 50.8236 75.4998 50.5778 75.6044 50.2326V50.217C75.6202 50.1491 75.628 50.0812 75.628 50.013C75.628 49.8929 75.603 49.795 75.5534 49.719C75.5037 49.6433 75.4461 49.5832 75.3809 49.5385C75.3155 49.4942 75.25 49.464 75.1847 49.4484C75.1193 49.4326 75.071 49.4248 75.0397 49.4248H73.4472L72.5215 53.7699H71.635L72.7176 48.6719Z" fill="#18405F"/>
<path fill-rule="evenodd" clip-rule="evenodd" d="M76.2788 53.7699L79.0323 48.6719H80.2247L81.0327 53.5347V53.6131C81.0274 53.6393 81.0144 53.6719 80.9934 53.7111C80.9725 53.7504 80.9595 53.7699 80.9543 53.7699H77.9969L78.4048 53.0248H80.0364L79.4952 49.6053L77.2045 53.7699H76.2788Z" fill="#18405F"/>
<path fill-rule="evenodd" clip-rule="evenodd" d="M86.8851 48.6719L85.8026 53.7699H84.767L83.2213 50.0915L82.4368 53.7699H81.5505L82.6333 48.6719H83.6449L85.1906 52.4601L85.9982 48.6719H86.8851Z" fill="#18405F"/>
<path fill-rule="evenodd" clip-rule="evenodd" d="M86.7433 53.017H88.8379C89.1517 53.017 89.3399 52.8733 89.4026 52.5856C89.4026 52.4915 89.3857 52.4131 89.3515 52.3502C89.3177 52.2875 89.2772 52.2302 89.2301 52.1777L87.6612 50.5934C87.572 50.5047 87.5109 50.3974 87.4766 50.2718C87.4427 50.1464 87.4258 50.0314 87.4258 49.9268C87.4258 49.885 87.4271 49.8498 87.4296 49.8209C87.4324 49.7921 87.4362 49.7647 87.4415 49.7385C87.4886 49.5085 87.5658 49.3228 87.6727 49.1817C87.7801 49.0405 87.9014 48.9321 88.0378 48.8561C88.1736 48.7804 88.316 48.7294 88.465 48.7033C88.6141 48.6771 88.7541 48.664 88.885 48.664H91.0893L90.9324 49.4247H88.885C88.8221 49.4247 88.7607 49.4353 88.7005 49.4562C88.6405 49.4772 88.5839 49.5046 88.5319 49.5385C88.4796 49.5725 88.4349 49.6105 88.3985 49.6522C88.3618 49.6941 88.3383 49.7385 88.328 49.7856L88.3201 49.809V49.8405C88.3201 49.9346 88.3685 50.0431 88.465 50.1659C88.5621 50.289 88.6847 50.4222 88.8337 50.566C88.9828 50.7099 89.1426 50.8628 89.3123 51.0247C89.4824 51.187 89.6417 51.3542 89.7908 51.5268C89.9399 51.6993 90.0629 51.8746 90.1595 52.0523C90.2566 52.2302 90.3048 52.4079 90.3048 52.5856C90.3048 52.6119 90.3036 52.6392 90.3007 52.6679C90.2982 52.6968 90.2941 52.7243 90.2891 52.7503C90.2627 52.8757 90.2186 53.0001 90.1558 53.1228C90.093 53.2459 90.0158 53.3557 89.9242 53.4522C89.8329 53.549 89.7255 53.6263 89.6026 53.6837C89.4799 53.7412 89.3448 53.7699 89.1988 53.7699H86.5864L86.7433 53.017Z" fill="#18405F"/>
<path fill-rule="evenodd" clip-rule="evenodd" d="M90.854 53.7699L91.9365 48.6719H94.3606C94.8362 48.6719 95.1854 48.7752 95.4076 48.9817C95.6301 49.1883 95.7412 49.4719 95.7412 49.8327C95.7412 49.9687 95.7255 50.115 95.6941 50.2719C95.6363 50.5491 95.5174 50.7922 95.337 51.0013C95.1565 51.2106 94.946 51.3883 94.7056 51.5346C94.4649 51.6812 94.2086 51.7922 93.9369 51.8679C93.6648 51.9439 93.4113 51.9844 93.176 51.9896L93.0897 51.2209C93.325 51.2209 93.5435 51.1949 93.7446 51.1425C93.946 51.0903 94.1224 51.0196 94.2742 50.9308C94.4258 50.8419 94.5488 50.7373 94.6429 50.617C94.7371 50.4969 94.7969 50.3687 94.8234 50.2326V50.217C94.8391 50.1491 94.8469 50.0812 94.8469 50.013C94.8469 49.8929 94.8222 49.795 94.7722 49.719C94.7227 49.6433 94.6653 49.5832 94.5996 49.5385C94.5344 49.4942 94.4691 49.464 94.4035 49.4484C94.3382 49.4326 94.29 49.4248 94.2586 49.4248H92.6661L91.7405 53.7699H90.854Z" fill="#18405F"/>
<path fill-rule="evenodd" clip-rule="evenodd" d="M100.181 51.0484C100.218 50.9072 100.236 50.7425 100.236 50.5542C100.236 50.3504 100.205 50.1766 100.142 50.0327C100.079 49.889 99.9931 49.7726 99.8833 49.6836C99.7734 49.5949 99.6451 49.5294 99.4989 49.4875C99.3524 49.4459 99.1955 49.4248 99.0282 49.4248H98.8713C98.6723 49.4248 98.4737 49.4537 98.2752 49.5111C98.0761 49.5687 97.8908 49.6616 97.7181 49.7895C97.5456 49.9177 97.3936 50.0851 97.2632 50.2916C97.1323 50.4981 97.0356 50.7503 96.9729 51.0484L96.9102 51.3385C96.868 51.5792 96.8474 51.7597 96.8474 51.8798C96.8474 52.2772 96.9572 52.566 97.1769 52.7464C97.3965 52.9268 97.6868 53.017 98.0477 53.017H98.2045C98.4135 53.017 98.619 52.9856 98.8201 52.9229C99.0217 52.8601 99.2086 52.7608 99.3813 52.6249C99.5538 52.489 99.7042 52.3151 99.8321 52.1033C99.9605 51.8915 100.056 51.6366 100.119 51.3385L100.181 51.0484ZM98.385 53.7699H97.6161C97.4279 53.7699 97.2367 53.7307 97.0436 53.6523C96.8498 53.5738 96.672 53.4577 96.51 53.3032C96.3478 53.1491 96.2157 52.9582 96.1137 52.7308C96.0117 52.5032 95.9609 52.2405 95.9609 51.9425C95.9609 51.7334 95.9791 51.5531 96.0158 51.4012L96.0944 51.0406C96.1831 50.6275 96.3243 50.2706 96.518 49.9699C96.7111 49.6694 96.9283 49.4235 97.169 49.2327C97.4094 49.0419 97.6632 48.9008 97.9299 48.8092C98.1966 48.7177 98.4502 48.6719 98.6909 48.6719H99.4597C99.6322 48.6719 99.8164 48.7086 100.013 48.7817C100.209 48.855 100.389 48.9674 100.554 49.1189C100.718 49.2706 100.855 49.4601 100.962 49.6875C101.069 49.915 101.123 50.1805 101.123 50.4836C101.123 50.5674 101.117 50.655 101.107 50.7464C101.096 50.838 101.081 50.9361 101.06 51.0406L100.982 51.4012C100.892 51.8197 100.75 52.1778 100.554 52.4759C100.358 52.7738 100.137 53.0184 99.8911 53.2092C99.6451 53.4 99.3891 53.5413 99.1224 53.6328C98.8557 53.7244 98.6095 53.7699 98.385 53.7699Z" fill="#18405F"/>
<path fill-rule="evenodd" clip-rule="evenodd" d="M102.347 48.6719H104.77C105.215 48.6719 105.557 48.7557 105.798 48.9229C106.038 49.0902 106.159 49.3699 106.159 49.7621C106.159 49.9243 106.143 50.0863 106.112 50.2484C106.07 50.4576 105.998 50.6471 105.896 50.8169C105.794 50.9871 105.674 51.1374 105.535 51.268C105.397 51.3989 105.242 51.5099 105.072 51.6013C104.903 51.6929 104.728 51.7621 104.551 51.8091L105.429 53.7699H104.535L103.445 51.2523C103.486 51.2209 103.519 51.2027 103.543 51.1974C103.566 51.1923 103.594 51.1895 103.625 51.1895C104.033 51.1895 104.377 51.1165 104.657 50.9699C104.936 50.8236 105.128 50.5778 105.233 50.2326V50.217C105.249 50.1491 105.257 50.0812 105.257 50.013C105.257 49.8929 105.232 49.795 105.182 49.719C105.133 49.6433 105.075 49.5832 105.01 49.5385C104.944 49.4942 104.879 49.464 104.814 49.4484C104.748 49.4326 104.7 49.4248 104.668 49.4248H103.076L102.15 53.7699H101.264L102.347 48.6719Z" fill="#18405F"/>
<path fill-rule="evenodd" clip-rule="evenodd" d="M111.085 48.6719L110.928 49.4248H109.289L108.363 53.7699H107.477L108.402 49.4248H106.763L106.92 48.6719H111.085Z" fill="#18405F"/>
<path fill-rule="evenodd" clip-rule="evenodd" d="M65.1643 59.9319L65.9028 56.3938H64.5923L64.6877 55.9388H67.8315L67.7362 56.3938H66.4367L65.6984 59.9319H65.1643Z" fill="#45AC47"/>
<path fill-rule="evenodd" clip-rule="evenodd" d="M67.54 59.9319L68.3763 55.9388H68.9077L68.5617 57.5975H70.6321L70.978 55.9388H71.5121L70.6784 59.9319H70.1444L70.5368 58.0494H68.4691L68.074 59.9319H67.54Z" fill="#45AC47"/>
<path fill-rule="evenodd" clip-rule="evenodd" d="M71.5857 59.9319L72.4219 55.9388H75.3044L75.209 56.3938H72.8606L72.599 57.6355H74.8874L74.7922 58.0903H72.5036L72.2151 59.4794H74.7295L74.6342 59.9319H71.5857Z" fill="#45AC47"/>
<path fill-rule="evenodd" clip-rule="evenodd" d="M77.8623 57.7255H78.6006C78.9421 57.7255 79.1646 57.7209 79.268 57.7119C79.4697 57.692 79.6348 57.6466 79.7639 57.5756C79.8927 57.505 79.9926 57.4096 80.0636 57.2895C80.1344 57.1698 80.1697 57.041 80.1697 56.9028C80.1697 56.7867 80.1435 56.6856 80.0908 56.5993C80.0379 56.5131 79.969 56.4544 79.8838 56.4235C79.7984 56.3925 79.653 56.3773 79.4478 56.3773H78.1456L77.8623 57.7255ZM76.8679 59.9319L77.7042 55.9388H79.3797C79.7101 55.9388 79.9608 55.9665 80.1315 56.0218C80.3023 56.0772 80.4362 56.1812 80.5335 56.3335C80.6307 56.4862 80.6792 56.6785 80.6792 56.911C80.6792 57.2363 80.5729 57.5058 80.3605 57.7201C80.148 57.9344 79.8047 58.0734 79.3307 58.1365C79.4759 58.2439 79.5859 58.3492 79.6601 58.4528C79.8274 58.6869 79.9618 58.9296 80.0636 59.1801L80.3687 59.9319H79.7721L79.486 59.188C79.3823 58.9192 79.2643 58.6869 79.1318 58.4908C79.0409 58.3546 78.9484 58.2654 78.8538 58.2225C78.7595 58.1799 78.6059 58.1585 78.3935 58.1585H77.7723L77.4017 59.9319H76.8679Z" fill="#45AC47"/>
<path fill-rule="evenodd" clip-rule="evenodd" d="M80.9543 59.9319L81.7907 55.9388H82.3222L81.4884 59.9319H80.9543Z" fill="#45AC47"/>
<path fill-rule="evenodd" clip-rule="evenodd" d="M84.4718 58.3573L84.5672 57.9054H86.3162L85.9752 59.5314C85.7555 59.6692 85.5054 59.7819 85.2237 59.8691C84.9421 59.9562 84.6651 60 84.3926 60C83.8117 60 83.3773 59.8245 83.0904 59.474C82.8488 59.178 82.7283 58.7979 82.7283 58.333C82.7283 57.8534 82.834 57.417 83.0459 57.024C83.2572 56.631 83.5244 56.3405 83.8464 56.1526C84.1689 55.9644 84.5272 55.8707 84.9211 55.8707C85.2047 55.8707 85.459 55.9219 85.6837 56.0243C85.9092 56.127 86.0817 56.264 86.2014 56.4358C86.3211 56.6072 86.4079 56.8313 86.4608 57.1071L85.9372 57.1644C85.881 56.8903 85.7646 56.6797 85.587 56.5336C85.4103 56.3875 85.1829 56.3144 84.905 56.3144C84.616 56.3144 84.3464 56.3929 84.0958 56.5501C83.8451 56.707 83.6449 56.9444 83.495 57.261C83.3451 57.5781 83.2704 57.938 83.2704 58.3409C83.2704 58.7425 83.3695 59.0455 83.5673 59.2507C83.7655 59.4558 84.0387 59.5587 84.3873 59.5587C84.7341 59.5587 85.1072 59.4443 85.507 59.2151L85.687 58.3573H84.4718Z" fill="#45AC47"/>
<path fill-rule="evenodd" clip-rule="evenodd" d="M86.76 59.9319L87.5965 55.9388H88.1279L87.7819 57.5975H89.8524L90.1985 55.9388H90.7323L89.8987 59.9319H89.3644L89.7571 58.0494H87.689L87.2943 59.9319H86.76Z" fill="#45AC47"/>
<path fill-rule="evenodd" clip-rule="evenodd" d="M91.8218 59.9319L92.56 56.3938H91.25L91.3453 55.9388H94.4889L94.3936 56.3938H93.0943L92.3556 59.9319H91.8218Z" fill="#45AC47"/>
<path fill-rule="evenodd" clip-rule="evenodd" d="M98.8779 58.5262L99.4064 58.5997C99.2391 59.0612 98.996 59.4096 98.6764 59.6457C98.3565 59.8819 97.9981 60 97.6001 60C97.1154 60 96.7305 59.8517 96.4465 59.5558C96.162 59.2598 96.02 58.8358 96.02 58.2839C96.02 57.5648 96.2364 56.97 96.6687 56.4998C97.0534 56.0804 97.5319 55.8707 98.1042 55.8707C98.5274 55.8707 98.8701 55.9842 99.1327 56.2108C99.3949 56.4379 99.5473 56.743 99.5889 57.126L99.0906 57.1727C99.0377 56.8837 98.9291 56.6683 98.7648 56.5258C98.6004 56.3829 98.3883 56.312 98.1286 56.312C97.6401 56.312 97.245 56.5287 96.9436 56.9629C96.6822 57.337 96.5514 57.7807 96.5514 58.2946C96.5514 58.705 96.6522 59.0183 96.8536 59.2346C97.0554 59.4505 97.3176 59.5587 97.641 59.5587C97.9172 59.5587 98.167 59.4687 98.3903 59.2891C98.6137 59.1091 98.7764 58.8548 98.8779 58.5262Z" fill="#45AC47"/>
<path fill-rule="evenodd" clip-rule="evenodd" d="M100.885 58.371H102.206L102.051 57.3687C101.991 56.9708 101.954 56.6398 101.94 56.3744C101.849 56.6034 101.716 56.8746 101.542 57.1888L100.885 58.371ZM99.4302 59.9319L101.694 55.9388H102.324L102.983 59.9319H102.465L102.272 58.7822H100.656L100.016 59.9319H99.4302Z" fill="#45AC47"/>
<path fill-rule="evenodd" clip-rule="evenodd" d="M103.487 59.9319L104.321 55.9388H104.855L104.117 59.4794H106.19L106.095 59.9319H103.487Z" fill="#45AC47"/>
<path fill-rule="evenodd" clip-rule="evenodd" d="M106.59 59.9319L107.423 55.9388H107.957L107.219 59.4794H109.293L109.197 59.9319H106.59Z" fill="#45AC47"/>
<path fill-rule="evenodd" clip-rule="evenodd" d="M61.6327 43.9399H57.4203C55.0342 43.9399 52.9942 42.2237 52.5861 39.8732L48.1957 14.5828H54.3191C56.6744 14.5828 58.68 16.2953 59.0486 18.6212L60.8877 30.2283L76.3951 11.033H48.3026L39.8469 46.3641H75.1846L83.6403 11.033H82.14L61.6327 43.9399Z" fill="#18405F"/>
<mask id="mask0_173_10502" style="mask-type:luminance" maskUnits="userSpaceOnUse" x="0" y="0" width="88" height="57">
<path d="M0 0H87.3681V56.3935H0V0Z" fill="#45AC47"/>
</mask>
<g mask="url(#mask0_173_10502)">
<path fill-rule="evenodd" clip-rule="evenodd" d="M50.0667 16.2736H52.6138C54.9581 16.2736 56.9577 17.9705 57.3386 20.2833L59.6207 34.1394L87.3682 0L60.7269 41.969H58.694C56.3111 41.969 54.2727 40.2572 53.8612 37.9106L50.0667 16.2736Z" fill="#45AC47"/>
</g>
<mask id="mask1_173_10502" style="mask-type:luminance" maskUnits="userSpaceOnUse" x="0" y="0" width="88" height="57">
<path d="M0 0H87.3681V56.3935H0V0Z" fill="#45AC47"/>
</mask>
<g mask="url(#mask1_173_10502)">
<path fill-rule="evenodd" clip-rule="evenodd" d="M64.1237 55.8612H0.218375L-0.00756836 56.3935H63.8977L64.1237 55.8612Z" fill="#45AC47"/>
</g>
<path fill-rule="evenodd" clip-rule="evenodd" d="M36.983 18.7741H25.6448C25.2973 18.7741 24.9565 18.8322 24.6239 18.9477C24.2906 19.0638 23.979 19.2158 23.6899 19.4038C23.4001 19.5925 23.1536 19.8022 22.9513 20.0336C22.7484 20.2658 22.6182 20.5114 22.5606 20.7721L22.5169 20.9023V21.0761C22.5169 21.5972 22.7845 22.1984 23.3206 22.8784C23.8562 23.559 24.537 24.2976 25.3623 25.0936C26.1878 25.8904 27.0708 26.7372 28.0124 27.6345C28.9532 28.5323 29.8369 29.4586 30.6622 30.4141C31.4875 31.3697 32.1677 32.3402 32.7039 33.324C33.2396 34.3088 33.5075 35.2935 33.5075 36.2777C33.5075 36.4228 33.5002 36.5749 33.4859 36.7336C33.471 36.8932 33.4493 37.0451 33.4209 37.1897C33.2755 37.8847 33.0299 38.5728 32.6822 39.2528C32.3347 39.9334 31.9071 40.5415 31.4007 41.0771C30.8936 41.6131 30.2997 42.0399 29.6197 42.3582C28.9389 42.6772 28.1928 42.836 27.3823 42.836H12.9166L13.7853 38.6665H25.3843C27.1217 38.6665 28.1642 37.8705 28.512 36.2777C28.512 35.7565 28.4176 35.3221 28.2295 34.9746C28.0408 34.6271 27.8169 34.3088 27.5561 34.019L18.868 25.2456C18.3752 24.7535 18.035 24.1597 17.8471 23.4647C17.6585 22.7698 17.5647 22.1333 17.5647 21.5537C17.5647 21.3223 17.5715 21.1269 17.5864 20.9673C17.6007 20.8086 17.6223 20.6566 17.6517 20.5114C17.9122 19.2375 18.3391 18.2094 18.933 17.4275C19.5263 16.6459 20.1997 16.0453 20.9532 15.6251C21.7059 15.2057 22.4953 14.9235 23.3206 14.7781C24.146 14.6338 24.9205 14.5611 25.6448 14.5611H46.4365L47.2808 11.033H19.4926C15.0656 11.033 11.2166 14.0691 10.1863 18.3736L3.48755 46.3641H38.8251L45.4282 18.7741H36.983Z" fill="#18405F"/>
<path fill-rule="evenodd" clip-rule="evenodd" d="M84.6623 11.033L83.8128 14.5828H113.798L112.929 18.7524H103.85L98.7239 42.8143H93.815L98.9411 18.7524H84.8705V18.7741H82.8096L76.2065 46.3641H104.452C108.611 46.3641 112.227 43.5121 113.195 39.4683L120 11.033H84.6623Z" fill="#18405F"/>
</g>
<defs>
<clipPath id="clip0_173_10502">
<rect width="120" height="60" fill="white"/>
</clipPath>
</defs>
</svg>
